<svg width="1557" height="229" viewBox="0 0 1557 229" fill="none" xmlns="http://www.w3.org/2000/svg">
<path d="M1153.66 94.882V109.162H1188.41V130.344H1153.66V157H1125.58V73.7H1193.29V94.882H1153.66ZM1245.25 158.904C1236.29 158.904 1228.24 157.04 1221.1 153.311C1213.96 149.582 1208.36 144.426 1204.32 137.841C1200.27 131.177 1198.25 123.68 1198.25 115.35C1198.25 107.02 1200.27 99.5627 1204.32 92.978C1208.36 86.314 1213.96 81.1177 1221.1 77.389C1228.24 73.6603 1236.29 71.796 1245.25 71.796C1254.22 71.796 1262.27 73.6603 1269.41 77.389C1276.55 81.1177 1282.14 86.314 1286.19 92.978C1290.23 99.5627 1292.26 107.02 1292.26 115.35C1292.26 123.68 1290.23 131.177 1286.19 137.841C1282.14 144.426 1276.55 149.582 1269.41 153.311C1262.27 157.04 1254.22 158.904 1245.25 158.904ZM1245.25 136.175C1248.74 136.175 1251.88 135.342 1254.65 133.676C1257.51 131.931 1259.77 129.511 1261.44 126.417C1263.1 123.244 1263.94 119.555 1263.94 115.35C1263.94 111.145 1263.1 107.496 1261.44 104.402C1259.77 101.229 1257.51 98.809 1254.65 97.143C1251.88 95.3977 1248.74 94.525 1245.25 94.525C1241.76 94.525 1238.59 95.3977 1235.73 97.143C1232.96 98.809 1230.73 101.229 1229.07 104.402C1227.4 107.496 1226.57 111.145 1226.57 115.35C1226.57 119.555 1227.4 123.244 1229.07 126.417C1230.73 129.511 1232.96 131.931 1235.73 133.676C1238.59 135.342 1241.76 136.175 1245.25 136.175ZM1338.15 136.056H1330.53V157H1302.45V73.7H1342.55C1350.25 73.7 1356.95 74.9693 1362.66 77.508C1368.38 80.0467 1372.78 83.696 1375.87 88.456C1378.97 93.216 1380.51 98.7693 1380.51 105.116C1380.51 111.066 1379.17 116.262 1376.47 120.705C1373.77 125.148 1369.88 128.678 1364.81 131.296L1382.3 157H1352.31L1338.15 136.056ZM1352.19 105.116C1352.19 102.022 1351.24 99.642 1349.34 97.976C1347.43 96.2307 1344.58 95.358 1340.77 95.358H1330.53V114.874H1340.77C1344.58 114.874 1347.43 114.041 1349.34 112.375C1351.24 110.63 1352.19 108.21 1352.19 105.116ZM1446.22 113.089H1470.61V148.313C1465.69 151.724 1459.98 154.342 1453.48 156.167C1446.97 157.992 1440.58 158.904 1434.32 158.904C1425.43 158.904 1417.46 157.079 1410.4 153.43C1403.34 149.701 1397.78 144.545 1393.74 137.96C1389.77 131.296 1387.79 123.759 1387.79 115.35C1387.79 106.941 1389.77 99.4437 1393.74 92.859C1397.78 86.195 1403.38 81.0383 1410.52 77.389C1417.74 73.6603 1425.87 71.796 1434.91 71.796C1443.08 71.796 1450.38 73.1843 1456.81 75.961C1463.31 78.6583 1468.71 82.625 1472.99 87.861L1455.02 103.688C1449.79 97.5793 1443.56 94.525 1436.34 94.525C1430.15 94.525 1425.23 96.3893 1421.58 100.118C1417.93 103.847 1416.11 108.924 1416.11 115.35C1416.11 121.617 1417.89 126.655 1421.46 130.463C1425.11 134.271 1429.95 136.175 1435.98 136.175C1439.55 136.175 1442.96 135.501 1446.22 134.152V113.089ZM1551.84 135.818V157H1482.58V73.7H1550.29V94.882H1510.19V104.64H1545.41V124.87H1510.19V135.818H1551.84Z" fill="url(#paint0_linear_102_28)"/>
<path d="M274.934 73.7C282.312 73.7 288.698 74.9297 294.093 77.389C299.567 79.8483 303.772 83.339 306.707 87.861C309.642 92.383 311.11 97.738 311.11 103.926C311.11 110.035 309.642 115.39 306.707 119.991C303.772 124.513 299.567 128.004 294.093 130.463C288.698 132.843 282.312 134.033 274.934 134.033H258.155V157H238.877V73.7H274.934ZM273.863 118.325C279.654 118.325 284.057 117.095 287.072 114.636C290.087 112.097 291.594 108.527 291.594 103.926C291.594 99.2453 290.087 95.6753 287.072 93.216C284.057 90.6773 279.654 89.408 273.863 89.408H258.155V118.325H273.863ZM341.295 101.427C343.516 98.333 346.491 95.9927 350.22 94.406C354.028 92.8193 358.391 92.026 363.31 92.026V109.162C361.247 109.003 359.859 108.924 359.145 108.924C353.83 108.924 349.665 110.431 346.65 113.446C343.635 116.381 342.128 120.824 342.128 126.774V157H323.564V92.978H341.295V101.427ZM404.231 157.952C397.488 157.952 391.419 156.564 386.024 153.787C380.709 150.931 376.544 147.004 373.529 142.006C370.515 137.008 369.007 131.336 369.007 124.989C369.007 118.642 370.515 112.97 373.529 107.972C376.544 102.974 380.709 99.0867 386.024 96.31C391.419 93.454 397.488 92.026 404.231 92.026C410.975 92.026 417.004 93.454 422.319 96.31C427.635 99.0867 431.8 102.974 434.814 107.972C437.829 112.97 439.336 118.642 439.336 124.989C439.336 131.336 437.829 137.008 434.814 142.006C431.8 147.004 427.635 150.931 422.319 153.787C417.004 156.564 410.975 157.952 404.231 157.952ZM404.231 142.72C408.991 142.72 412.879 141.133 415.893 137.96C418.987 134.707 420.534 130.384 420.534 124.989C420.534 119.594 418.987 115.31 415.893 112.137C412.879 108.884 408.991 107.258 404.231 107.258C399.471 107.258 395.544 108.884 392.45 112.137C389.356 115.31 387.809 119.594 387.809 124.989C387.809 130.384 389.356 134.707 392.45 137.96C395.544 141.133 399.471 142.72 404.231 142.72ZM517.79 92.978V146.29C517.79 158.031 514.735 166.758 508.627 172.47C502.518 178.182 493.593 181.038 481.852 181.038C475.664 181.038 469.793 180.284 464.24 178.777C458.686 177.27 454.085 175.088 450.436 172.232L457.814 158.904C460.511 161.125 463.922 162.871 468.048 164.14C472.173 165.489 476.298 166.163 480.424 166.163C486.85 166.163 491.57 164.695 494.585 161.76C497.679 158.904 499.226 154.541 499.226 148.67V145.933C494.386 151.248 487.643 153.906 478.996 153.906C473.125 153.906 467.73 152.637 462.812 150.098C457.972 147.48 454.125 143.831 451.269 139.15C448.413 134.469 446.985 129.075 446.985 122.966C446.985 116.857 448.413 111.463 451.269 106.782C454.125 102.101 457.972 98.4917 462.812 95.953C467.73 93.335 473.125 92.026 478.996 92.026C488.278 92.026 495.338 95.0803 500.178 101.189V92.978H517.79ZM482.685 138.674C487.603 138.674 491.61 137.246 494.704 134.39C497.877 131.455 499.464 127.647 499.464 122.966C499.464 118.285 497.877 114.517 494.704 111.661C491.61 108.726 487.603 107.258 482.685 107.258C477.766 107.258 473.72 108.726 470.547 111.661C467.373 114.517 465.787 118.285 465.787 122.966C465.787 127.647 467.373 131.455 470.547 134.39C473.72 137.246 477.766 138.674 482.685 138.674ZM552.799 101.427C555.02 98.333 557.995 95.9927 561.724 94.406C565.532 92.8193 569.895 92.026 574.814 92.026V109.162C572.751 109.003 571.363 108.924 570.649 108.924C565.334 108.924 561.169 110.431 558.154 113.446C555.139 116.381 553.632 120.824 553.632 126.774V157H535.068V92.978H552.799V101.427ZM611.327 92.026C621.243 92.026 628.859 94.406 634.175 99.166C639.49 103.847 642.148 110.947 642.148 120.467V157H624.774V149.027C621.283 154.977 614.778 157.952 605.258 157.952C600.339 157.952 596.055 157.119 592.406 155.453C588.836 153.787 586.099 151.486 584.195 148.551C582.291 145.616 581.339 142.284 581.339 138.555C581.339 132.605 583.56 127.924 588.003 124.513C592.525 121.102 599.466 119.396 608.828 119.396H623.584C623.584 115.35 622.354 112.256 619.895 110.114C617.435 107.893 613.746 106.782 608.828 106.782C605.416 106.782 602.045 107.337 598.713 108.448C595.46 109.479 592.683 110.907 590.383 112.732L583.719 99.761C587.209 97.3017 591.374 95.3977 596.214 94.049C601.132 92.7003 606.17 92.026 611.327 92.026ZM609.899 145.457C613.072 145.457 615.888 144.743 618.348 143.315C620.807 141.808 622.552 139.626 623.584 136.77V130.225H610.851C603.235 130.225 599.427 132.724 599.427 137.722C599.427 140.102 600.339 142.006 602.164 143.434C604.068 144.783 606.646 145.457 609.899 145.457ZM740.94 92.026C748.953 92.026 755.299 94.406 759.98 99.166C764.74 103.847 767.12 110.907 767.12 120.348V157H748.556V123.204C748.556 118.127 747.485 114.358 745.343 111.899C743.28 109.36 740.305 108.091 736.418 108.091C732.055 108.091 728.604 109.519 726.065 112.375C723.526 115.152 722.257 119.317 722.257 124.87V157H703.693V123.204C703.693 113.129 699.647 108.091 691.555 108.091C687.271 108.091 683.86 109.519 681.321 112.375C678.782 115.152 677.513 119.317 677.513 124.87V157H658.949V92.978H676.68V100.356C679.06 97.6587 681.956 95.596 685.367 94.168C688.858 92.74 692.666 92.026 696.791 92.026C701.313 92.026 705.399 92.9383 709.048 94.763C712.697 96.5083 715.633 99.0867 717.854 102.498C720.472 99.166 723.764 96.5877 727.731 94.763C731.777 92.9383 736.18 92.026 740.94 92.026ZM865.75 92.026C873.763 92.026 880.11 94.406 884.79 99.166C889.55 103.847 891.93 110.907 891.93 120.348V157H873.366V123.204C873.366 118.127 872.295 114.358 870.153 111.899C868.091 109.36 865.116 108.091 861.228 108.091C856.865 108.091 853.414 109.519 850.875 112.375C848.337 115.152 847.067 119.317 847.067 124.87V157H828.503V123.204C828.503 113.129 824.457 108.091 816.365 108.091C812.081 108.091 808.67 109.519 806.131 112.375C803.593 115.152 802.323 119.317 802.323 124.87V157H783.759V92.978H801.49V100.356C803.87 97.6587 806.766 95.596 810.177 94.168C813.668 92.74 817.476 92.026 821.601 92.026C826.123 92.026 830.209 92.9383 833.858 94.763C837.508 96.5083 840.443 99.0867 842.664 102.498C845.282 99.166 848.575 96.5877 852.541 94.763C856.587 92.9383 860.99 92.026 865.75 92.026ZM908.57 92.978H927.134V157H908.57V92.978ZM917.852 84.053C914.441 84.053 911.664 83.0613 909.522 81.078C907.38 79.0947 906.309 76.6353 906.309 73.7C906.309 70.7647 907.38 68.3053 909.522 66.322C911.664 64.3387 914.441 63.347 917.852 63.347C921.263 63.347 924.04 64.299 926.182 66.203C928.324 68.107 929.395 70.487 929.395 73.343C929.395 76.437 928.324 79.0153 926.182 81.078C924.04 83.0613 921.263 84.053 917.852 84.053ZM983.276 92.026C991.209 92.026 997.596 94.406 1002.43 99.166C1007.35 103.926 1009.81 110.987 1009.81 120.348V157H991.249V123.204C991.249 118.127 990.138 114.358 987.917 111.899C985.696 109.36 982.483 108.091 978.278 108.091C973.597 108.091 969.869 109.559 967.092 112.494C964.315 115.35 962.927 119.634 962.927 125.346V157H944.363V92.978H962.094V100.475C964.553 97.7777 967.608 95.715 971.257 94.287C974.906 92.7797 978.913 92.026 983.276 92.026ZM1093.38 92.978V146.29C1093.38 158.031 1090.33 166.758 1084.22 172.47C1078.11 178.182 1069.19 181.038 1057.44 181.038C1051.26 181.038 1045.39 180.284 1039.83 178.777C1034.28 177.27 1029.68 175.088 1026.03 172.232L1033.41 158.904C1036.1 161.125 1039.52 162.871 1043.64 164.14C1047.77 165.489 1051.89 166.163 1056.02 166.163C1062.44 166.163 1067.16 164.695 1070.18 161.76C1073.27 158.904 1074.82 154.541 1074.82 148.67V145.933C1069.98 151.248 1063.24 153.906 1054.59 153.906C1048.72 153.906 1043.32 152.637 1038.4 150.098C1033.57 147.48 1029.72 143.831 1026.86 139.15C1024.01 134.469 1022.58 129.075 1022.58 122.966C1022.58 116.857 1024.01 111.463 1026.86 106.782C1029.72 102.101 1033.57 98.4917 1038.4 95.953C1043.32 93.335 1048.72 92.026 1054.59 92.026C1063.87 92.026 1070.93 95.0803 1075.77 101.189V92.978H1093.38ZM1058.28 138.674C1063.2 138.674 1067.2 137.246 1070.3 134.39C1073.47 131.455 1075.06 127.647 1075.06 122.966C1075.06 118.285 1073.47 114.517 1070.3 111.661C1067.2 108.726 1063.2 107.258 1058.28 107.258C1053.36 107.258 1049.31 108.726 1046.14 111.661C1042.97 114.517 1041.38 118.285 1041.38 122.966C1041.38 127.647 1042.97 131.455 1046.14 134.39C1049.31 137.246 1053.36 138.674 1058.28 138.674Z" fill="#183152"/>
<path d="M100.764 0L0 57.7303V174.838L33.6834 194.668L34.754 77.8537L100.764 39.3834L166.623 77.8537V155.263L108.147 188.944V228.405L201.123 174.838V57.7303L100.764 0Z" fill="url(#paint1_linear_102_28)"/>
<path d="M48.5586 203.542V95.6963L93.2661 120.925V229L48.5586 203.542Z" fill="url(#paint2_linear_102_28)"/>
<path d="M56.2656 82.3073L100.069 107.863L144.585 82.3073L100.069 56.082L56.2656 82.3073Z" fill="url(#paint3_linear_102_28)"/>
<path d="M107.611 121.422V172.897L152.632 147.276V94.9355L107.611 121.422Z" fill="url(#paint4_linear_102_28)"/>
<defs>
<linearGradient id="paint0_linear_102_28" x1="1748.5" y1="66.5" x2="1728.99" y2="238.533" gradientUnits="userSpaceOnUse">
<stop offset="0.364748" stop-color="#FF7C03"/>
<stop offset="0.747843" stop-color="#DB196A"/>
<stop offset="1" stop-color="#9819B8"/>
</linearGradient>
<linearGradient id="paint1_linear_102_28" x1="289.071" y1="29.9003" x2="199.699" y2="294.638" gradientUnits="userSpaceOnUse">
<stop offset="0.258105" stop-color="#FF7C03"/>
<stop offset="0.742353" stop-color="#DB196A"/>
<stop offset="1" stop-color="#9819B8"/>
</linearGradient>
<linearGradient id="paint2_linear_102_28" x1="112.816" y1="113.147" x2="27.38" y2="209.538" gradientUnits="userSpaceOnUse">
<stop offset="0.258105" stop-color="#FF7C03"/>
<stop offset="0.742353" stop-color="#DB196A"/>
<stop offset="1" stop-color="#9819B8"/>
</linearGradient>
<linearGradient id="paint3_linear_102_28" x1="183.206" y1="62.8606" x2="171.898" y2="127.747" gradientUnits="userSpaceOnUse">
<stop offset="0.258105" stop-color="#FF7C03"/>
<stop offset="0.742353" stop-color="#DB196A"/>
<stop offset="1" stop-color="#9819B8"/>
</linearGradient>
<linearGradient id="paint4_linear_102_28" x1="172.319" y1="105.141" x2="131.357" y2="184.716" gradientUnits="userSpaceOnUse">
<stop offset="0.258105" stop-color="#FF7C03"/>
<stop offset="0.742353" stop-color="#DB196A"/>
<stop offset="1" stop-color="#9819B8"/>
</linearGradient>
</defs>
</svg>
